<?xml version="1.0" encoding="iso-8859-1"?>
<!-- Generator: Adobe Illustrator 21.0.0, SVG Export Plug-In . SVG Version: 6.00 Build 0)  -->
<svg version="1.1" id="Capa_1" xmlns="http://www.w3.org/2000/svg" xmlns:xlink="http://www.w3.org/1999/xlink" x="0px" y="0px"
	 viewBox="0 0 512 512" style="enable-background:new 0 0 512 512;" xml:space="preserve">
<g>
	<g>
		<g>
			<path d="M469.333,0H42.667C19.114,0.028,0.028,19.114,0,42.667v426.667C0.028,492.886,19.114,511.972,42.667,512h426.667
				c23.552-0.028,42.638-19.114,42.667-42.667V42.667C511.972,19.114,492.886,0.028,469.333,0z M494.933,469.333
				c0,14.138-11.461,25.6-25.6,25.6H42.667c-14.138,0-25.6-11.461-25.6-25.6v-384h477.867V469.333z M494.933,68.267H17.067v-25.6
				c0-14.138,11.462-25.6,25.6-25.6h426.667c14.138,0,25.6,11.462,25.6,25.6V68.267z"/>
			<path d="M59.733,34.133H51.2c-4.713,0-8.533,3.82-8.533,8.533S46.487,51.2,51.2,51.2h8.533c4.713,0,8.533-3.82,8.533-8.533
				S64.446,34.133,59.733,34.133z"/>
			<path d="M92.245,34.304c-0.565,0.079-1.113,0.252-1.621,0.512c-0.546,0.188-1.065,0.446-1.545,0.768
				c-0.443,0.317-0.867,0.659-1.271,1.024c-3.3,3.365-3.3,8.752,0,12.117c1.635,1.559,3.799,2.443,6.059,2.475
				c2.27,0.023,4.454-0.869,6.059-2.474s2.497-3.789,2.474-6.059c-0.033-2.259-0.917-4.422-2.475-6.059
				C97.903,34.618,95.029,33.756,92.245,34.304z"/>
			<path d="M134.059,36.608c-0.427-0.341-0.853-0.683-1.365-1.024c-0.436-0.337-0.927-0.596-1.451-0.768
				c-0.511-0.259-1.062-0.432-1.63-0.512c-2.781-0.507-5.637,0.35-7.68,2.304c-0.753,0.83-1.359,1.782-1.792,2.816
				c-0.475,1.013-0.706,2.124-0.674,3.243c-0.007,2.267,0.883,4.445,2.475,6.059c1.635,1.559,3.799,2.443,6.059,2.475
				c2.27,0.023,4.454-0.869,6.059-2.474c1.605-1.605,2.497-3.789,2.474-6.059c-0.013-1.115-0.245-2.217-0.683-3.243
				C135.418,38.39,134.812,37.438,134.059,36.608z"/>
			<path d="M460.8,34.133H170.667c-4.713,0-8.533,3.82-8.533,8.533s3.82,8.533,8.533,8.533H460.8c4.713,0,8.533-3.82,8.533-8.533
				S465.513,34.133,460.8,34.133z"/>
			<path d="M119.467,435.2h273.067c14.138,0,25.6-11.461,25.6-25.6v-34.133c0-14.138-11.462-25.6-25.6-25.6V332.8
				c14.138,0,25.6-11.461,25.6-25.6v-34.133c0-14.138-11.462-25.6-25.6-25.6V230.4c14.138,0,25.6-11.462,25.6-25.6v-34.133
				c0-14.138-11.462-25.6-25.6-25.6H119.467c-14.138,0-25.6,11.462-25.6,25.6V204.8c0,14.138,11.461,25.6,25.6,25.6v17.067
				c-14.138,0-25.6,11.461-25.6,25.6V307.2c0,14.138,11.461,25.6,25.6,25.6v17.067c-14.138,0-25.6,11.461-25.6,25.6V409.6
				C93.867,423.739,105.328,435.2,119.467,435.2z M110.933,204.8v-34.133c0-4.713,3.82-8.533,8.533-8.533h273.067
				c4.713,0,8.533,3.82,8.533,8.533V204.8c0,4.713-3.821,8.533-8.533,8.533H119.467C114.754,213.333,110.933,209.513,110.933,204.8z
				 M375.467,230.4v17.067H136.533V230.4H375.467z M110.933,307.2v-34.133c0-4.713,3.82-8.533,8.533-8.533h273.067
				c4.713,0,8.533,3.821,8.533,8.533V307.2c0,4.713-3.821,8.533-8.533,8.533H119.467C114.754,315.733,110.933,311.913,110.933,307.2
				z M375.467,332.8v17.067H136.533V332.8H375.467z M110.933,375.467c0-4.713,3.82-8.533,8.533-8.533h273.067
				c4.713,0,8.533,3.82,8.533,8.533V409.6c0,4.713-3.821,8.533-8.533,8.533H119.467c-4.713,0-8.533-3.82-8.533-8.533V375.467z"/>
			<path d="M136.533,196.267c0.541-0.014,1.081-0.071,1.613-0.171c0.568-0.08,1.119-0.253,1.63-0.512
				c0.524-0.172,1.014-0.431,1.451-0.768c0.488-0.295,0.946-0.638,1.365-1.024c3.346-3.346,3.346-8.771,0-12.117
				c-3.346-3.346-8.771-3.346-12.117,0c-2.462,2.441-3.201,6.129-1.872,9.331C129.932,194.208,133.067,196.287,136.533,196.267z"/>
			<path d="M170.667,196.267c0.541-0.014,1.081-0.071,1.613-0.171c0.568-0.08,1.119-0.253,1.63-0.512
				c0.524-0.172,1.014-0.431,1.451-0.768c0.488-0.295,0.946-0.638,1.365-1.024c3.346-3.346,3.346-8.771,0-12.117
				c-3.346-3.346-8.771-3.346-12.117,0c-2.462,2.441-3.201,6.129-1.872,9.331C164.065,194.208,167.2,196.287,170.667,196.267z"/>
			<path d="M136.533,298.667c0.541-0.014,1.081-0.071,1.613-0.171c0.568-0.08,1.119-0.253,1.63-0.512
				c0.524-0.172,1.014-0.431,1.451-0.768c0.488-0.295,0.946-0.638,1.365-1.024c3.346-3.346,3.346-8.771,0-12.117
				c-3.346-3.346-8.771-3.346-12.117,0c-2.462,2.441-3.201,6.129-1.872,9.331C129.932,296.608,133.067,298.687,136.533,298.667z"/>
			<path d="M170.667,298.667c0.541-0.014,1.081-0.071,1.613-0.171c0.568-0.08,1.119-0.253,1.63-0.512
				c0.524-0.172,1.014-0.431,1.451-0.768c0.488-0.295,0.946-0.638,1.365-1.024c3.346-3.346,3.346-8.771,0-12.117
				c-3.346-3.346-8.771-3.346-12.117,0c-2.462,2.441-3.201,6.129-1.872,9.331C164.065,296.608,167.2,298.687,170.667,298.667z"/>
			<path d="M136.533,401.067c0.541-0.014,1.081-0.071,1.613-0.171c0.568-0.08,1.119-0.253,1.63-0.512
				c0.524-0.172,1.014-0.431,1.451-0.768c0.488-0.295,0.946-0.638,1.365-1.024c3.346-3.346,3.346-8.771,0-12.117
				c-3.346-3.346-8.771-3.346-12.117,0c-2.462,2.441-3.201,6.129-1.872,9.331S133.067,401.087,136.533,401.067z"/>
			<path d="M170.667,401.067c0.541-0.014,1.081-0.071,1.613-0.171c0.568-0.08,1.119-0.253,1.63-0.512
				c0.524-0.172,1.014-0.431,1.451-0.768c0.488-0.295,0.946-0.638,1.365-1.024c2.165-2.165,3.01-5.32,2.218-8.276
				c-0.792-2.957-3.102-5.266-6.059-6.059c-2.957-0.792-6.112,0.053-8.276,2.218c-2.462,2.441-3.201,6.129-1.872,9.331
				S167.2,401.087,170.667,401.067z"/>
			<path d="M256,196.267h119.467c4.713,0,8.533-3.82,8.533-8.533s-3.82-8.533-8.533-8.533H256c-4.713,0-8.533,3.82-8.533,8.533
				S251.287,196.267,256,196.267z"/>
			<path d="M256,298.667h119.467c4.713,0,8.533-3.82,8.533-8.533s-3.82-8.533-8.533-8.533H256c-4.713,0-8.533,3.82-8.533,8.533
				S251.287,298.667,256,298.667z"/>
			<path d="M256,401.067h119.467c4.713,0,8.533-3.821,8.533-8.533c0-4.713-3.82-8.533-8.533-8.533H256
				c-4.713,0-8.533,3.821-8.533,8.533C247.467,397.246,251.287,401.067,256,401.067z"/>
		</g>
	</g>
</g>
<g>
</g>
<g>
</g>
<g>
</g>
<g>
</g>
<g>
</g>
<g>
</g>
<g>
</g>
<g>
</g>
<g>
</g>
<g>
</g>
<g>
</g>
<g>
</g>
<g>
</g>
<g>
</g>
<g>
</g>
</svg>
